<?xml version="1.0" encoding="UTF-8"?>
<svg version="1.1" xmlns="http://www.w3.org/2000/svg" width="512" height="512">
<path d="M0 0 C0.93776779 -0.00571014 1.87553558 -0.01142029 2.84172058 -0.01730347 C3.86362488 -0.01842133 4.88552917 -0.01953918 5.93840027 -0.02069092 C7.56101021 -0.02813828 7.56101021 -0.02813828 9.21640015 -0.03573608 C12.7971612 -0.05034833 16.37787796 -0.05715805 19.95866394 -0.06268311 C22.44724529 -0.06843516 24.93582663 -0.07419289 27.42440796 -0.07995605 C32.64391791 -0.09046326 37.86341248 -0.09630783 43.08293152 -0.09979248 C48.44009018 -0.10355801 53.79711134 -0.11764635 59.15422058 -0.14080811 C65.62329309 -0.16834614 72.09223181 -0.18120114 78.56136131 -0.18312836 C81.02569886 -0.18615397 83.49003557 -0.19417939 85.95433998 -0.20731354 C89.40361109 -0.22438556 92.85238519 -0.22249069 96.30168152 -0.21600342 C97.82542892 -0.22982559 97.82542892 -0.22982559 99.37995911 -0.243927 C108.10067508 -0.19260001 113.9659835 1.7922927 120.31413269 8.14044189 C123.57224759 13.34927527 125.43534936 18.34303789 125.44556046 24.51183605 C125.4494016 25.38509885 125.45324275 26.25836165 125.45720029 27.15808696 C125.45633381 28.11303359 125.45546732 29.06798022 125.45457458 30.05186462 C125.45754571 31.06982032 125.46051683 32.08777602 125.46357799 33.13657886 C125.47227076 36.55804082 125.47377373 39.97946781 125.4752655 43.40093994 C125.47989329 45.84995092 125.48491789 48.29896117 125.49031067 50.74797058 C125.503441 57.40928393 125.50991768 64.07058357 125.51432133 70.73190665 C125.51708534 74.89294102 125.52132302 79.05397307 125.5258255 83.21500587 C125.53801777 94.74017408 125.54831678 106.26534043 125.55170059 117.79051495 C125.55202994 118.89676235 125.55202994 118.89676235 125.55236594 120.02535819 C125.55258422 120.76460365 125.5528025 121.50384912 125.55302739 122.26549596 C125.55347085 123.76344343 125.55391742 125.26139091 125.55436707 126.75933838 C125.55469921 127.87388472 125.55469921 127.87388472 125.55503806 129.01094715 C125.55898439 141.04531303 125.57643352 153.07961829 125.59972659 165.11396077 C125.62345908 177.47533892 125.63590333 189.83668669 125.63706851 202.19808799 C125.63798427 209.13614281 125.6437114 216.07411868 125.66188812 223.01215172 C125.67892985 229.53989568 125.68052753 236.06751644 125.67174911 242.59528542 C125.67097836 244.98938523 125.67532646 247.38349308 125.68520737 249.77757263 C125.6979195 253.04992693 125.69205357 256.32175015 125.68162537 259.59410095 C125.68968177 260.53789397 125.69773818 261.481687 125.70603871 262.45407981 C125.64245375 271.00594384 123.84584461 277.91229048 118.30241394 284.53497314 C111.50964197 290.01990297 105.51040338 290.7247325 97.06803894 290.65802002 C95.96781403 290.6650293 94.86758911 290.67203857 93.73402405 290.67926025 C90.1146332 290.69679597 86.49603084 290.68523242 82.87663269 290.67169189 C80.35132193 290.67438806 77.82601218 290.67827151 75.30070496 290.68328857 C70.0150607 290.68917765 64.72961963 290.68102382 59.4440155 290.66192627 C53.34992153 290.64016057 47.25636301 290.64721322 41.16228199 290.66923189 C35.27825663 290.68963339 29.39443331 290.68739486 23.51039124 290.67570496 C21.01618881 290.67304201 18.52197265 290.67629217 16.02778625 290.68562317 C12.53823466 290.69581385 9.04970238 290.68025066 5.56022644 290.65802002 C4.53557281 290.66611694 3.51091919 290.67421387 2.45521545 290.68255615 C-4.810615 290.59706771 -9.89795156 289.19905363 -15.67414856 284.53497314 C-21.96684202 277.01715353 -23.13497113 269.20458432 -23.06681824 259.62774658 C-23.07149821 258.60551876 -23.07617818 257.58329094 -23.08099997 256.53008652 C-23.09291214 253.12402912 -23.08350732 249.71837688 -23.0740509 246.31231689 C-23.07811827 243.86256679 -23.08346107 241.41281853 -23.08998108 238.96307373 C-23.10222368 233.01154021 -23.10045511 227.06016416 -23.09174316 221.10863686 C-23.0849543 216.26957901 -23.08405507 211.43055295 -23.08731461 206.5914917 C-23.0877743 205.9014693 -23.088234 205.21144691 -23.08870763 204.50051475 C-23.08966686 203.09853012 -23.0906395 201.69654551 -23.09162541 200.29456091 C-23.10016988 187.16345205 -23.09036 174.03240612 -23.07422431 160.90130758 C-23.06082197 149.6463521 -23.06315033 138.39148946 -23.07698059 127.13653564 C-23.0930531 114.05082294 -23.09934599 100.96516532 -23.0901438 87.87944412 C-23.0891882 86.48276012 -23.08824509 85.08607611 -23.08731461 83.68939209 C-23.08685178 83.00228582 -23.08638895 82.31517955 -23.0859121 81.60725188 C-23.08332722 76.77678967 -23.08768236 71.94636254 -23.09475327 67.11590576 C-23.10406985 60.60859589 -23.0973897 54.10143381 -23.0800705 47.59413147 C-23.07610892 45.20809723 -23.07723404 42.82204823 -23.08385849 40.4360199 C-23.09207679 37.17486112 -23.08174834 33.91426059 -23.06681824 30.65313721 C-23.0735104 29.71275478 -23.08020257 28.77237236 -23.08709753 27.8034935 C-23.01050805 19.15679653 -21.21511301 11.97493235 -15.23274231 5.57794189 C-10.6178505 1.28935556 -6.15070979 0.02250057 0 0 Z " fill="#38E053" transform="translate(204.6858673095703,111.85955810546875)"/>
<path d="M0 0 C1.24587891 -0.02449219 2.49175781 -0.04898438 3.77539062 -0.07421875 C12.10901097 -0.10074486 17.81367839 0.51574564 24.24609375 6.19140625 C24.70113281 6.76761719 25.15617187 7.34382813 25.625 7.9375 C26.09808594 8.51628906 26.57117188 9.09507813 27.05859375 9.69140625 C29.61386293 13.50220561 29.29073436 17.12245427 29.25 21.5625 C29.24097656 22.83480469 29.23195313 24.10710937 29.22265625 25.41796875 C29.21105469 26.39378906 29.19945312 27.36960937 29.1875 28.375 C30.07421387 28.35928955 30.96092773 28.3435791 31.87451172 28.32739258 C35.21067322 28.27581591 38.54640208 28.23843509 41.8828125 28.21020508 C43.3181025 28.19525414 44.75334791 28.17488576 46.18847656 28.14868164 C60.00601262 27.90297232 71.93340966 29.69015727 82.453125 39.484375 C92.26216719 50.02001291 95.66399911 62.17401995 95.57518005 76.40499878 C95.58325836 77.98567302 95.58325836 77.98567302 95.59149987 79.59828007 C95.60570998 83.09933322 95.59869278 86.60000456 95.59155273 90.10107422 C95.59725993 92.62344667 95.60422553 95.14581655 95.61235046 97.66818237 C95.62840164 103.79055207 95.63039028 109.91278276 95.62513756 116.03516708 C95.62108394 121.01525749 95.62255351 125.99531767 95.62788582 130.97540665 C95.62863424 131.68620606 95.62938266 132.39700547 95.63015376 133.12934426 C95.63168536 134.57367889 95.63322371 136.01801351 95.63476873 137.46234812 C95.64847339 150.98463464 95.64307049 164.50686318 95.63158352 178.02914836 C95.62165388 190.37725641 95.63459073 202.72521457 95.65851771 215.07329951 C95.6829495 227.77845551 95.69250654 240.48354182 95.68586498 253.18872082 C95.68238173 260.31125125 95.68454545 267.43366648 95.70211601 274.55617905 C95.71843916 281.25564528 95.71359316 287.95478068 95.69481087 294.65425491 C95.69113401 297.1063405 95.69420692 299.5584474 95.70469666 302.01051331 C95.77277538 319.24661587 95.3824575 335.06496902 83.1875 348.59375 C77.84099004 353.71112382 72.07872912 356.77947137 65.1875 359.375 C64.37682571 359.72012131 63.56615143 360.06524261 62.73091125 360.42082214 C57.73847396 361.76519703 52.96583013 361.66160514 47.81713867 361.6496582 C46.1111274 361.6573246 46.1111274 361.6573246 44.37065125 361.66514587 C40.61553669 361.67903145 36.86060591 361.67808565 33.10546875 361.67578125 C30.49001497 361.67966911 27.87456183 361.68400397 25.2591095 361.68876648 C19.77745947 361.69697077 14.29586101 361.69607773 8.81420898 361.69067383 C2.49532969 361.68463989 -3.82332661 361.69693361 -10.14216787 361.7182439 C-16.23972307 361.73804518 -22.33717471 361.74102624 -28.43475914 361.73750877 C-31.02024547 361.73802124 -33.60573542 361.74324496 -36.19120216 361.75332069 C-39.81229285 361.76569913 -43.43287217 361.75888402 -47.05395508 361.74731445 C-48.11555847 361.75495819 -49.17716187 361.76260193 -50.27093506 361.77047729 C-62.18585453 361.68661478 -73.56046874 357.36783493 -82.5625 349.375 C-88.38557945 343.12995828 -93.92467261 332.44996427 -93.94951439 323.85392094 C-93.95458893 322.92179816 -93.95966347 321.98967539 -93.96489179 321.02930647 C-93.96538955 320.00345629 -93.96588731 318.97760611 -93.96640015 317.92066956 C-93.9707824 316.83218104 -93.97516465 315.74369252 -93.9796797 314.6222195 C-93.99308944 310.95590829 -93.99925153 307.28962114 -94.00537109 303.62329102 C-94.0132705 301.0019571 -94.02153935 298.38062427 -94.03015137 295.7592926 C-94.05467553 287.87759081 -94.06930473 279.9958827 -94.08221143 272.11415449 C-94.08592406 269.88696949 -94.08989726 267.65978511 -94.0939641 265.43260074 C-94.11920682 251.59566319 -94.14125534 237.75872464 -94.15369225 223.92176914 C-94.15662186 220.71648213 -94.15958353 217.51119514 -94.16259766 214.3059082 C-94.16334371 213.50926767 -94.16408976 212.71262714 -94.16485842 211.89184599 C-94.17750014 198.9993556 -94.21070671 186.10700349 -94.25239949 173.21457768 C-94.29487671 159.97067852 -94.31839415 146.72685001 -94.32361281 133.48288292 C-94.32702092 126.05001833 -94.33870455 118.61736962 -94.37171555 111.18457222 C-94.39979727 104.85130487 -94.41068015 98.51829765 -94.39952008 92.18497289 C-94.39435345 88.95697868 -94.3998478 85.72963936 -94.42198563 82.50170135 C-94.53233921 65.47971005 -94.18293664 52.31123623 -81.8125 39.375 C-73.29706681 31.59095371 -63.98527278 28.23025608 -52.54296875 28.27734375 C-51.86196609 28.2787587 -51.18096344 28.28017365 -50.47932434 28.28163147 C-48.31950353 28.28719702 -46.15978911 28.29974297 -44 28.3125 C-42.52929838 28.31751946 -41.05859512 28.32208159 -39.58789062 28.32617188 C-35.9960596 28.33715512 -32.4042902 28.35439578 -28.8125 28.375 C-28.83787842 27.41803223 -28.86325684 26.46106445 -28.8894043 25.47509766 C-28.90914307 24.21745605 -28.92888184 22.95981445 -28.94921875 21.6640625 C-28.97459717 20.41834473 -28.99997559 19.17262695 -29.02612305 17.88916016 C-28.64382307 11.60021637 -25.72688997 8.19367047 -21.3125 4 C-14.47906563 -0.44173234 -7.92424328 0.00812326 0 0 Z M-76.125 49.75 C-82.66786294 57.94635819 -82.96215721 66.74217412 -82.94621277 76.75471497 C-82.94847833 77.79888083 -82.95074388 78.84304669 -82.95307809 79.91885394 C-82.95940724 83.4170239 -82.95858942 86.91515502 -82.95776367 90.41333008 C-82.96075584 92.92174835 -82.9641585 95.43016617 -82.96794128 97.93858337 C-82.97586156 104.04488399 -82.97899569 110.15117038 -82.97955366 116.25747565 C-82.98002929 121.22245533 -82.98208636 126.18743183 -82.98525429 131.15241051 C-82.99405825 145.23777953 -82.99867407 159.32314095 -82.99792381 173.40851275 C-82.99788386 174.16742669 -82.9978439 174.92634062 -82.99780273 175.70825195 C-82.99776185 176.46809553 -82.99772097 177.22793911 -82.99767885 178.01080825 C-82.99727247 190.32309276 -83.00684085 202.63534668 -83.0209411 214.94762234 C-83.03531431 227.59834675 -83.04221076 240.24905625 -83.04134732 252.89978904 C-83.04101568 259.99876077 -83.04374852 267.09770044 -83.05452538 274.19666481 C-83.06459713 280.87380764 -83.06428537 287.55087156 -83.05700874 294.22802162 C-83.05596293 296.67694701 -83.05832558 299.12587662 -83.0643692 301.57479477 C-83.07209244 304.92138744 -83.06744192 308.26774642 -83.05973816 311.61433411 C-83.06488172 312.58010858 -83.07002529 313.54588305 -83.07532471 314.54092342 C-83.0232212 324.80538169 -81.41578563 333.46413545 -74.17578125 341.1015625 C-67.76893322 346.94691149 -60.62094295 349.48410679 -51.95063782 349.51544189 C-50.99900253 349.52115204 -50.04736725 349.52686218 -49.06689453 349.53274536 C-47.51844849 349.53442215 -47.51844849 349.53442215 -45.9387207 349.53613281 C-44.84214645 349.54109772 -43.7455722 349.54606262 -42.61576843 349.55117798 C-38.98993297 349.56577594 -35.36414127 349.57259813 -31.73828125 349.578125 C-29.21347554 349.58387892 -26.68866983 349.58963663 -24.16386414 349.59539795 C-19.54510553 349.60455994 -14.92635999 349.61086261 -10.3075946 349.6138947 C-3.53110608 349.6183689 3.24518007 349.63589175 10.0216071 349.6648953 C15.90930223 349.68921123 21.79693048 349.69684363 27.6846714 349.69857025 C30.18002231 349.70158939 32.67537252 349.70959285 35.17069054 349.72275543 C38.66953036 349.73989229 42.16788279 349.73791663 45.66674805 349.73144531 C46.68892426 349.7406601 47.71110046 349.74987488 48.76425171 349.7593689 C58.51884823 349.70311654 67.60920441 347.87106027 74.77734375 340.80859375 C80.60705702 334.43724452 83.30823593 327.44907811 83.31613445 318.77123642 C83.32097112 317.42178 83.32097112 317.42178 83.3259055 316.04506183 C83.3243569 315.0657914 83.3228083 314.08652097 83.32121277 313.07757568 C83.3246111 311.5064832 83.3246111 311.5064832 83.32807809 309.90365148 C83.33441601 306.38855597 83.33358885 302.87349903 83.33276367 299.35839844 C83.33575531 296.84027557 83.33915785 294.32215317 83.34294128 291.80403137 C83.35086649 285.67018808 83.35399595 279.53635896 83.35455366 273.40251103 C83.35502908 268.41510087 83.35708512 263.42769388 83.36025429 258.44028473 C83.36906028 244.29367003 83.37367383 230.14706291 83.37292381 216.00044546 C83.37288386 215.23797912 83.3728439 214.47551278 83.37280273 213.68994141 C83.37274141 212.54484186 83.37274141 212.54484186 83.37267885 211.376609 C83.37227255 199.00929549 83.38183829 186.64201246 83.3959411 174.27470776 C83.41031433 161.56977442 83.41721074 148.86485593 83.41634732 136.15991426 C83.41601565 129.02962854 83.41874972 121.89937476 83.42952538 114.76909637 C83.43959725 108.0615982 83.43928532 101.35417858 83.43200874 94.6466732 C83.4309629 92.18646077 83.43332577 89.72624413 83.4393692 87.26603889 C83.44709205 83.90406635 83.44244214 80.54232646 83.43473816 77.18035889 C83.4424535 75.72483758 83.4424535 75.72483758 83.45032471 74.23991179 C83.39839377 63.96315238 81.80047656 55.29608744 74.55078125 47.6484375 C65.92150032 39.77543063 56.49914876 39.22474952 45.36791992 39.22973633 C43.74969078 39.22469841 43.74969078 39.22469841 42.09877014 39.21955872 C38.53849124 39.21007332 34.97825949 39.20810679 31.41796875 39.20703125 C28.93703695 39.20381694 26.45610535 39.20045274 23.97517395 39.19694519 C18.77600668 39.19095992 13.57685602 39.18910467 8.37768555 39.18969727 C1.72665877 39.18979884 -4.92422371 39.17614868 -11.5752306 39.15892506 C-16.6994424 39.14778797 -21.82362851 39.14577859 -26.94785118 39.14630699 C-29.39936377 39.14512938 -31.85087707 39.14071991 -34.3023777 39.13297462 C-37.73657264 39.12314064 -41.17053741 39.12606639 -44.60473633 39.13208008 C-45.61023529 39.12646057 -46.61573425 39.12084106 -47.65170288 39.11505127 C-58.99614691 39.16534704 -68.24755082 41.11585004 -76.125 49.75 Z " fill="#484D4C" transform="translate(255.8125,62.625)"/>
<path d="M0 0 C4.87218647 1.47664729 8.2347774 5.02116227 11.5390625 8.76953125 C13.58616743 12.86374111 13.31743191 17.34723985 12.5390625 21.76953125 C10.38161104 25.57299473 7.51289759 28.58362364 4.5390625 31.76953125 C-24.84550367 65.47950557 -40.59013125 108.96488423 -38.4609375 153.76953125 C-35.44069754 194.46506885 -19.94138379 232.90412438 8.40625 262.734375 C11.71799617 266.22834643 13.46848888 268.89181416 13.6953125 273.796875 C13.24760381 279.44919727 10.81225773 282.83217851 6.9140625 286.70703125 C3.24717226 289.67546621 0.48081071 290.80362826 -4.2421875 290.375 C-19.97233467 286.08244223 -34.02971508 261.04964983 -41.59667969 247.8815918 C-43.62762664 244.21540445 -45.56291462 240.50597523 -47.4609375 236.76953125 C-47.81881348 236.07682129 -48.17668945 235.38411133 -48.54541016 234.67041016 C-58.09200945 216.03893102 -63.68459374 196.30417718 -67.4609375 175.76953125 C-67.64712646 174.78742676 -67.83331543 173.80532227 -68.02514648 172.79345703 C-69.59529789 163.74662854 -69.90110759 154.79868315 -69.8984375 145.64453125 C-69.899505 144.86117401 -69.90057251 144.07781677 -69.90167236 143.27072144 C-69.87256984 128.36135011 -68.07314357 114.26101939 -64.4609375 99.76953125 C-64.22568359 98.81530273 -63.99042969 97.86107422 -63.74804688 96.87792969 C-62.20295787 90.76780499 -60.43835502 84.75330462 -58.4609375 78.76953125 C-58.21150391 78.01446289 -57.96207031 77.25939453 -57.70507812 76.48144531 C-48.9680555 50.7757322 -33.78027716 27.64825216 -15.4609375 7.76953125 C-14.74164063 6.9703125 -14.02234375 6.17109375 -13.28125 5.34765625 C-9.22549437 1.27561244 -5.82661201 -0.3878395 0 0 Z " fill="#12AC12" transform="translate(80.4609375,114.23046875)"/>
<path d="M0 0 C4.82837048 3.2553267 8.46318153 7.67459826 12.1015625 12.1640625 C13.35646484 13.68193359 13.35646484 13.68193359 14.63671875 15.23046875 C49.11025412 57.54029537 64.00221443 110.17639962 59.86279297 164.28515625 C59.25696359 169.97815584 58.27634047 175.56361234 57.1015625 181.1640625 C56.96234375 181.86917969 56.823125 182.57429687 56.6796875 183.30078125 C49.47099686 219.4109816 32.38533257 252.37944785 7.6015625 279.5390625 C7.10930176 280.08071045 6.61704102 280.6223584 6.10986328 281.18041992 C2.98024867 284.51475044 0.54050762 286.82261018 -4.046875 287.46484375 C-9.10802955 287.49148141 -12.46794957 286.89051661 -16.8984375 284.1640625 C-16.8984375 283.5040625 -16.8984375 282.8440625 -16.8984375 282.1640625 C-17.8884375 281.8340625 -18.8784375 281.5040625 -19.8984375 281.1640625 C-22.19346969 277.17795396 -22.69091652 272.66329825 -21.8984375 268.1640625 C-20.02362319 264.35704161 -17.44787611 261.42009001 -14.62182617 258.30688477 C-2.56883825 245.02432553 6.54464543 230.37515392 14.1015625 214.1640625 C14.55917969 213.27203125 15.01679688 212.38 15.48828125 211.4609375 C33.7723379 174.77746738 33.42875668 128.00455459 20.97705078 89.72363281 C12.85740713 65.98510964 0.27652889 44.45178331 -17.05859375 26.27734375 C-21.08028273 21.65795152 -22.41341285 18.33993691 -22.18359375 12.3046875 C-21.47148733 6.95901192 -17.75688286 3.63666332 -13.8984375 0.1640625 C-9.34475299 -1.35383234 -4.51440563 -1.9878247 0 0 Z " fill="#11AC11" transform="translate(439.8984375,111.8359375)"/>
<path d="M0 0 C6.46573494 5.42635793 6.46573494 5.42635793 7.5078125 9.76171875 C7.80067191 13.81619455 7.72969423 16.57120797 5.37109375 19.984375 C3.83841473 21.62105724 2.27853222 23.23248929 0.69921875 24.82421875 C-20.74570891 47.10587047 -30.64006278 78.05640981 -30.21484375 108.55859375 C-29.38400572 135.49928618 -18.46927033 161.89228246 -0.21484375 181.68359375 C7.64952501 190.3092509 7.64952501 190.3092509 8.05859375 195.8828125 C7.45592595 201.45973846 4.20395058 205.14337025 -0.00390625 208.6328125 C-4.46487306 211.35795957 -8.92349821 211.61512704 -14.00390625 210.6328125 C-17.20172024 208.77226618 -19.51888676 206.35017121 -22.00390625 203.6328125 C-22.638125 202.98054687 -23.27234375 202.32828125 -23.92578125 201.65625 C-34.25695775 190.6225535 -41.7638637 178.30787665 -48.00390625 164.6328125 C-48.47570312 163.61574219 -48.9475 162.59867188 -49.43359375 161.55078125 C-54.56276536 149.90660595 -58.31088389 137.25173496 -60.00390625 124.6328125 C-60.17019531 123.43978516 -60.17019531 123.43978516 -60.33984375 122.22265625 C-62.91768189 99.68399032 -60.4504611 77.02967291 -53.00390625 55.6328125 C-52.35808594 53.77462891 -52.35808594 53.77462891 -51.69921875 51.87890625 C-45.87449415 36.36276133 -37.63742037 22.31993491 -27.00390625 9.6328125 C-25.89982422 8.30056641 -25.89982422 8.30056641 -24.7734375 6.94140625 C-17.93112383 -1.05626996 -10.0953319 -6.88765334 0 0 Z " fill="#12AC12" transform="translate(127.00390625,155.3671875)"/>
<path d="M0 0 C25.21610587 20.86671595 40.4484603 56.9017799 44.02734375 88.82421875 C46.80180343 131.32580008 35.69227755 167.4930515 9.02734375 200.82421875 C8.3725 201.64792969 7.71765625 202.47164062 7.04296875 203.3203125 C3.33854954 207.78692416 0.08104967 211.1798671 -5.9140625 212.1328125 C-11.0609646 212.45510428 -13.96408295 211.2092362 -17.97265625 207.82421875 C-20.83542124 205.21038984 -22.69577282 203.30253551 -23.421875 199.42578125 C-23.67339085 193.6495896 -22.8006362 190.30575625 -18.97265625 185.82421875 C-18.35132813 185.1796875 -17.73 184.53515625 -17.08984375 183.87109375 C-1.35494076 167.29022823 7.00009633 146.83353368 12.02734375 124.82421875 C12.20765137 124.04071045 12.38795898 123.25720215 12.57373047 122.44995117 C17.62527945 93.20914959 9.3289957 62.81863665 -7.16796875 38.6015625 C-10.14278976 34.58503587 -13.16181974 30.70775945 -16.54296875 27.0234375 C-23.56023763 19.24724769 -23.56023763 19.24724769 -23.97265625 13.13671875 C-23.52072016 7.96538447 -21.49842077 4.9305273 -17.828125 1.35546875 C-12.55516985 -2.99610687 -5.99319126 -3.57217935 0 0 Z " fill="#11AC11" transform="translate(400.97265625,150.17578125)"/>
<path d="M0 0 C0.9742903 3.07500611 0.98440535 5.02560455 0.17089844 8.1340332 C-0.13566681 9.34871529 -0.13566681 9.34871529 -0.44842529 10.5879364 C-0.79106415 11.8998571 -0.79106415 11.8998571 -1.140625 13.23828125 C-3.11355136 21.13848847 -4.87872338 29.04752448 -6.421875 37.04296875 C-6.61495239 38.04143829 -6.80802979 39.03990784 -7.00695801 40.06863403 C-7.59138323 43.10761459 -8.17124046 46.14743576 -8.75 49.1875 C-9.34598758 52.30740102 -9.94334646 55.42701675 -10.54425049 58.54597473 C-10.91342154 60.46295095 -11.27971852 62.3804835 -11.64276123 64.29862976 C-11.8887204 65.57816277 -11.8887204 65.57816277 -12.13964844 66.88354492 C-12.28223083 67.63294846 -12.42481323 68.38235199 -12.57171631 69.15446472 C-13 71 -13 71 -14 73 C-13.50242188 72.70867187 -13.00484375 72.41734375 -12.4921875 72.1171875 C-9.14729496 70.61775291 -5.68838244 69.90635287 -2.125 69.125 C5.67588572 67.35550216 13.32713415 65.26568495 21 63 C23.33216517 62.3291671 25.66597423 61.66434487 28 61 C27.25505249 64.82803853 25.6065523 68.17941371 23.9296875 71.66796875 C23.61693375 72.32683578 23.30417999 72.98570282 22.98194885 73.66453552 C22.3044947 75.09151254 21.62554885 76.51778212 20.94528198 77.94342041 C19.10944753 81.7926477 17.28649897 85.64795239 15.46484375 89.50390625 C15.09027542 90.29661926 14.71570709 91.08933228 14.32978821 91.90606689 C10.6192805 99.77649801 7.01876795 107.69512637 3.4375 115.625 C-3.88302557 131.8249319 -11.41426243 147.92278943 -19 164 C-20.16796345 160.49610964 -19.76979319 159.13017624 -18.92578125 155.58203125 C-18.54595093 153.96095459 -18.54595093 153.96095459 -18.15844727 152.30712891 C-17.87928467 151.15390137 -17.60012207 150.00067383 -17.3125 148.8125 C-17.03140381 147.62575684 -16.75030762 146.43901367 -16.46069336 145.21630859 C-15.65021275 141.80843171 -14.82825924 138.40359473 -14 135 C-13.81244141 134.22865723 -13.62488281 133.45731445 -13.43164062 132.66259766 C-12.51801127 128.92883687 -11.57615413 125.20251312 -10.62744141 121.47753906 C-9.1530109 115.65554654 -7.70520437 109.82682108 -6.25 104 C-5.1775 99.71 -4.105 95.42 -3 91 C-22.8 95.95 -22.8 95.95 -43 101 C-42.05467846 96.27339228 -40.54549719 92.33854125 -38.59765625 87.984375 C-38.24821457 87.19229141 -37.89877289 86.40020782 -37.53874207 85.5841217 C-36.38458317 82.97069162 -35.22349366 80.36040004 -34.0625 77.75 C-33.25499956 75.92430849 -32.44804142 74.09837703 -31.64160156 72.2722168 C-29.95541935 68.45510733 -28.26686985 64.6390582 -26.57666016 60.82373047 C-22.83585223 52.37486852 -19.12212564 43.91412355 -15.40914917 35.45300293 C-14.2790637 32.87870614 -13.14763094 30.30500549 -12.01586914 27.73144531 C-7.96199191 18.50800909 -3.94725005 9.26962852 0 0 Z " fill="#FAFEFB" transform="translate(263,166)"/>
<path d="M0 0 C1.45606519 4.52092968 0.27032841 7.51648796 -1 12 C-2.32 12.33 -3.64 12.66 -5 13 C-3.58192622 8.52761347 -1.88695626 4.28853694 0 0 Z " fill="#C5F5CD" transform="translate(263,166)"/>
<path d="M0 0 C0.66 0.99 1.32 1.98 2 3 C5.56769552 3.73606499 5.56769552 3.73606499 9 4 C9 4.33 9 4.66 9 5 C5.7 5.66 2.4 6.32 -1 7 C-0.67 4.69 -0.34 2.38 0 0 Z " fill="#47E15F" transform="translate(250,232)"/>
<path d="M0 0 C-0.33 1.65 -0.66 3.3 -1 5 C-1.33 4.01 -1.66 3.02 -2 2 C-4.31 2 -6.62 2 -9 2 C-5.86501708 0.14223235 -3.62528568 -0.20140476 0 0 Z " fill="#46E15F" transform="translate(260,257)"/>
</svg>
